<svg width="1024" height="1024" xmlns="http://www.w3.org/2000/svg" data-spm-anchor-id="a313x.7781069.0.i2" p-id="1518" version="1.1" class="icon" t="1686127631216">
 <g>
  <title>Layer 1</title>
  <path stroke="null" id="svg_1" data-spm-anchor-id="a313x.7781069.0.i0" p-id="1519" fill="#35eb9a" d="m421.48658,53.91714c65.96948,-12.6462 134.66992,-11.2659 200.06657,4.0226c57.29699,13.38235 111.95629,37.55735 160.24775,70.77661c86.84471,59.33983 152.61437,148.13924 182.93475,248.03366c27.20308,88.29988 26.73682,184.47405 -0.54619,272.69505l-0.17319,0.6047c-30.65343,-70.34281 -99.63363,-122.70226 -176.20725,-134.74374l-0.01332,-0.1446c0.62612,-53.2665 -14.84047,-106.63817 -44.42816,-151.25479c-30.30706,-46.14151 -75.0949,-82.89698 -126.69017,-103.70667c-53.20721,-21.67731 -113.36839,-26.08113 -169.30656,-12.77765c-52.20807,12.25182 -100.37965,40.21279 -136.94795,78.92697c-38.38006,40.39683 -63.81135,92.61168 -71.47138,147.4951c-8.37941,58.02526 2.77093,118.66651 31.70585,169.88229c25.88422,46.22039 65.72968,84.65851 113.08863,109.21474c40.28508,21.04632 85.96548,31.68121 131.51266,31.20796l0.14654,0c9.87144,61.41686 46.63957,117.85148 98.48796,153.02946c11.98961,8.03205 24.48544,15.70915 38.03369,20.83598l-0.74602,0.21033c-92.49315,27.89525 -193.6588,27.31683 -285.61908,-2.39252c-101.09903,-32.18075 -190.12852,-99.42116 -248.43797,-186.99802c-31.21295,-46.52274 -53.78005,-98.64556 -66.2892,-153.05575c-15.38666,-66.96436 -15.6531,-137.26772 -0.70606,-204.33725c19.43649,-88.26044 65.95615,-170.39497 131.55262,-233.34988c65.39665,-63.25726 149.81679,-107.16401 239.80545,-124.17457l0.00001,0z"/>
  <ellipse stroke="null" opacity="0.9" ry="233.42744" rx="236.92741" id="svg_3" cy="745.2943" cx="748.51228" fill="#ffffff"/>
 </g>

</svg>