<svg width="1024" height="1024" xmlns="http://www.w3.org/2000/svg" t="1686127631216" class="icon" version="1.1" p-id="1518" data-spm-anchor-id="a313x.7781069.0.i2">
 <g>
  <title>Layer 1</title>
  <path stroke="null" d="m422.47238,40.1875c67.19011,-13.0527 137.16172,-11.62803 203.7684,4.1519c58.35716,13.81252 114.02781,38.76461 163.21281,73.05168c88.4516,61.24727 155.43819,152.90108 186.31959,256.00653c27.70642,91.13822 27.23153,190.40384 -0.5563,281.46065l-0.17639,0.62414c-31.22061,-72.60393 -101.47715,-126.64644 -179.46761,-139.07499l-0.01357,-0.14925c0.63771,-54.97872 -15.11506,-110.06598 -45.25021,-156.11677c-30.86783,-47.6247 -76.48438,-85.56165 -129.03432,-107.04025c-54.1917,-22.37411 -115.46604,-26.91949 -172.43924,-13.18838c-53.17408,12.64565 -102.23697,41.5054 -139.4819,81.46402c-39.09021,41.69536 -64.99205,95.58862 -72.79381,152.23623c-8.53445,59.89044 2.8222,122.48097 32.2925,175.34304c26.36316,47.70611 66.94588,87.3798 115.18111,112.72537c41.03047,21.72284 87.5561,32.69958 133.94604,32.21112l0.14925,0c10.05409,63.39106 47.50254,121.63974 100.31028,157.94849c12.21145,8.29023 24.93849,16.21411 38.73743,21.50574l-0.75982,0.21709c-94.20455,28.79192 -197.24206,28.19491 -290.90388,-2.46943c-102.96966,-33.21518 -193.64646,-102.61699 -253.03481,-193.00895c-31.79048,-48.01818 -54.77514,-101.81646 -67.51575,-157.97562c-15.67136,-69.11688 -15.94273,-141.6801 -0.71912,-210.90553c19.79612,-91.09751 67.17654,-175.8722 133.98674,-240.85075c66.60668,-65.29062 152.58885,-110.60872 244.24257,-128.16608z" fill="#35eb9a" p-id="1519" data-spm-anchor-id="a313x.7781069.0.i0" id="svg_1"/>
  <ellipse stroke="null" fill="#ffffff" cx="754.93972" cy="752.8884" id="svg_3" rx="241.66666" ry="243.33334" opacity="0.9"/>
 </g>

</svg>