<svg width="1024" height="1024" xmlns="http://www.w3.org/2000/svg" t="1686132263840" class="icon" version="1.1" p-id="2418">
 <g>
  <title>Layer 1</title>
  <path transform="rotate(90 512 512)" stroke="null" d="m673.38661,20.06364l-282.28841,287.15028l120.90179,122.98409l40.48482,-41.1821l-40.48482,-41.1821l161.38661,-163.60398l160.83393,163.60398l-160.83393,164.16619l-40.48482,-41.1821l-40.48482,41.1821l120.90179,122.98409l282.28841,-287.15028l-322.22056,-327.77017l0,0.00001zm-161.38661,573.73836l-40.48482,41.1821l40.48482,41.1821l-161.38661,163.60398l-160.83393,-163.60398l160.83393,-164.16619l40.48482,41.1821l40.48482,-41.1821l-120.90179,-122.98409l-282.28841,287.15028l322.22056,327.77017l282.28841,-287.15028l-120.90179,-122.98409l0,-0.00001zm181.21451,143.57513l40.20849,-40.83072l120.90179,122.98409l-40.07031,40.901l-121.03997,-123.05438l0,0.00001zm-523.67747,-532.97791l40.07031,-40.76044l121.03997,122.98409l-40.20847,40.90099l-120.90179,-123.12465l-0.00001,0.00001zm624.75138,459.46856l161.38663,0l0,-57.6971l-161.38663,0l0,57.76738l0,-0.07028zm-431.51577,-438.38557l56.7893,0l0,-164.23647l-56.7893,0l0,164.23647zm-293.89499,192.34711l161.45572,0l0,-57.62682l-161.45572,0l0,57.76738l0,-0.14056zm535.6295,545.41688l56.78929,0l0,-164.1662l-56.7202,0l0,164.1662l-0.06909,0z" fill="#35eb9a" p-id="2419" data-spm-anchor-id="a313x.7781069.0.i0" class="selected" id="svg_1"/>
 </g>

</svg>