<?xml version="1.0" standalone="no"?><!DOCTYPE svg PUBLIC "-//W3C//DTD SVG 1.1//EN" "http://www.w3.org/Graphics/SVG/1.1/DTD/svg11.dtd"><svg t="1686132263840" class="icon" viewBox="0 0 1024 1024" version="1.1" xmlns="http://www.w3.org/2000/svg" p-id="2418" xmlns:xlink="http://www.w3.org/1999/xlink" width="200" height="200"><path d="M682.861714 0L384 298.861714 512 426.861714l42.861714-42.861714L512 341.138286l170.861714-170.276572 170.276572 170.276572L682.861714 512l-42.861714-42.861714L597.138286 512l128 128L1024 341.138286 682.861714 0zM512 597.138286l-42.861714 42.861714 42.861714 42.861714-170.861714 170.276572-170.276572-170.276572L341.138286 512l42.861714 42.861714L426.861714 512l-128-128L0 682.861714 341.138286 1024 640 725.138286 512 597.138286z m191.853714 149.430857l42.569143-42.496 128 128-42.422857 42.569143-128.146286-128.073143z m-554.422857-554.715429l42.422857-42.422857 128.146286 128-42.569143 42.569143-128-128.146286z m661.430857 478.208h170.861715V610.011429h-170.861715v60.123428zM354.011429 213.796571h60.123428V42.861714H354.011429v170.934857zM42.861714 413.988571h170.934857V354.011429H42.861714v60.123428z m567.076572 567.661715h60.123428v-170.861715H610.011429v170.861715z" fill="#42d392" p-id="2419" data-spm-anchor-id="a313x.7781069.0.i0" class="selected"></path></svg>