<svg width="1024" height="1024" xmlns="http://www.w3.org/2000/svg" data-spm-anchor-id="a313x.7781069.0.i2" p-id="1518" version="1.1" class="icon" t="1686127631216">
 <g>
  <title>Layer 1</title>
  <path id="svg_1" data-spm-anchor-id="a313x.7781069.0.i0" p-id="1519" fill="#35eb9a" d="m440.05,164.53c49.52,-9.62 101.09,-8.57 150.18,3.06c43.01,10.18 84.04,28.57 120.29,53.84c65.19,45.14 114.56,112.69 137.32,188.68c20.42,67.17 20.07,140.33 -0.41,207.44l-0.13,0.46c-23.01,-53.51 -74.79,-93.34 -132.27,-102.5l-0.01,-0.11c0.47,-40.52 -11.14,-81.12 -33.35,-115.06c-22.75,-35.1 -56.37,-63.06 -95.1,-78.89c-39.94,-16.49 -85.1,-19.84 -127.09,-9.72c-39.19,9.32 -75.35,30.59 -102.8,60.04c-28.81,30.73 -47.9,70.45 -53.65,112.2c-6.29,44.14 2.08,90.27 23.8,129.23c19.43,35.16 49.34,64.4 84.89,83.08c30.24,16.01 64.53,24.1 98.72,23.74l0.11,0c7.41,46.72 35.01,89.65 73.93,116.41c9,6.11 18.38,11.95 28.55,15.85l-0.56,0.16c-69.43,21.22 -145.37,20.78 -214.4,-1.82c-75.89,-24.48 -142.72,-75.63 -186.49,-142.25c-23.43,-35.39 -40.37,-75.04 -49.76,-116.43c-11.55,-50.94 -11.75,-104.42 -0.53,-155.44c14.59,-67.14 49.51,-129.62 98.75,-177.51c49.09,-48.12 112.46,-81.52 180.01,-94.46z"/>
  <ellipse stroke="null" opacity="0.9" ry="178.46154" rx="179.23076" id="svg_3" cy="691.22175" cx="686.60638" fill="#ffffff"/>
 </g>

</svg>